<svg width="46" height="46" viewBox="0 0 46 46" fill="none" xmlns="http://www.w3.org/2000/svg">
<path d="M9.13137 7.94168L9.08072 7.8166C8.81296 7.14908 8.64953 6.81301 8.50066 6.74165C8.19222 6.59357 7.37662 6.62426 5.83899 6.68181L4.6359 6.72402C4.18398 6.73628 2.9924 6.73092 2.14916 6.72632L1.4072 6.72323C0.662942 6.72093 0.0621597 6.11401 0.0644597 5.36975C0.0667597 4.6255 0.673675 4.02474 1.41793 4.02704L2.15989 4.0301C2.97475 4.03394 4.12567 4.0393 4.56455 4.0278L5.74384 3.98559C7.71115 3.91195 8.75233 3.87204 9.66385 4.30939C10.6314 4.77283 11.0388 5.47181 11.5736 6.78539C13.9959 10.987 16.2479 10.9732 20.6743 10.9471L41.8066 10.9509C42.3529 10.9456 42.8585 11.0269 43.3143 11.1773L43.4447 11.2279C44.1568 11.4911 44.7322 11.9254 45.1419 12.4993C45.5739 13.1039 45.8079 13.8397 45.8079 14.6622C45.8079 15.1571 45.7174 15.6965 45.5279 16.2674L42.5094 25.3512C41.7406 27.666 41.0685 28.9589 39.9037 29.7523C38.729 30.5533 37.338 30.6745 35.096 30.6745L18.7745 30.673C16.9476 30.6784 15.2458 30.2073 13.9161 29.1668C12.6954 28.2093 11.8207 26.8067 11.4946 24.8939C11.2352 23.3716 11.0127 20.9516 10.7802 18.4035C10.4227 14.4927 10.0337 10.2566 9.459 8.7803L9.13137 7.94168ZM34.664 31.8063C35.7313 31.8063 36.7042 32.2421 37.4093 32.9464C38.1191 33.6569 38.5549 34.6298 38.5549 35.6971C38.5549 36.7644 38.1191 37.7365 37.4147 38.4424C36.7042 39.1521 35.7313 39.588 34.664 39.588C33.5967 39.588 32.6246 39.1521 31.9187 38.4478C31.209 37.7365 30.7732 36.7644 30.7732 35.6971C30.7732 34.6298 31.209 33.6569 31.9133 32.9518C32.6246 32.2421 33.5967 31.8063 34.664 31.8063ZM35.5034 34.857C35.2909 34.6444 34.9939 34.5132 34.664 34.5132C34.3341 34.5132 34.0371 34.6444 33.8269 34.8547C33.6113 35.0702 33.4801 35.3672 33.4801 35.6971C33.4801 36.027 33.6113 36.324 33.8215 36.5342C34.0372 36.7498 34.3341 36.881 34.664 36.881C34.9939 36.881 35.2909 36.7498 35.5011 36.5396C35.7167 36.324 35.8479 36.027 35.8479 35.6971C35.8479 35.3672 35.7167 35.0702 35.5034 34.857ZM19.8188 31.8063C20.886 31.8063 21.859 32.2421 22.5641 32.9464C23.2738 33.6569 23.7096 34.6298 23.7096 35.6971C23.7096 36.7644 23.2738 37.7365 22.5694 38.4424C21.859 39.1521 20.886 39.588 19.8188 39.588C18.7515 39.588 17.7793 39.1521 17.0734 38.4478C16.3637 37.7365 15.9279 36.7644 15.9279 35.6971C15.9279 34.6298 16.3637 33.6569 17.0681 32.9518C17.7793 32.2421 18.7515 31.8063 19.8188 31.8063ZM20.6582 34.857C20.4456 34.6444 20.1487 34.5132 19.8188 34.5132C19.4888 34.5132 19.1919 34.6444 18.9817 34.8547C18.766 35.0702 18.6349 35.3672 18.6349 35.6971C18.6349 36.027 18.766 36.324 18.9763 36.5342C19.1919 36.7498 19.4888 36.881 19.8188 36.881C20.1487 36.881 20.4456 36.7498 20.6559 36.5396C20.8715 36.324 21.0027 36.027 21.0027 35.6971C21.0027 35.3672 20.8715 35.0702 20.6582 34.857ZM20.6858 13.6433C17.2952 13.664 14.9389 13.6778 12.8749 12.3619C13.099 14.1558 13.2862 16.1976 13.4657 18.161C13.6897 20.614 13.9038 22.9442 14.1586 24.4396C14.3627 25.6397 14.8737 26.4906 15.5765 27.0415C16.3944 27.6814 17.5208 27.9714 18.7745 27.9714L35.096 27.9729C36.804 27.9676 37.8129 27.9085 38.3815 27.521C38.9585 27.1282 39.3797 26.222 39.9498 24.5056L42.9682 15.4218C43.0572 15.1518 43.101 14.8963 43.101 14.6622C43.101 14.4113 43.045 14.208 42.9429 14.0645C42.8539 13.9395 42.7166 13.8374 42.5386 13.7668L42.4688 13.7461C42.2846 13.6855 42.0629 13.6525 41.8066 13.6525L20.6858 13.6433Z" fill="#2B2A29"/>
</svg>
