<svg width="36" height="36" viewBox="0 0 36 36" fill="none" xmlns="http://www.w3.org/2000/svg">
<g clip-path="url(#clip0_314_303)">
<path d="M16.647 10.1338C16.1488 10.1338 15.7447 9.72966 15.7447 9.23142C15.7447 8.73318 16.1488 8.32907 16.647 8.32907C19.1996 8.32907 21.4964 9.12501 23.3425 10.4985C25.2378 11.9088 26.6516 13.9258 27.3709 16.3116C28.9617 21.586 25.6173 26.154 20.6452 27.6528C19.106 28.1168 17.4604 28.2554 15.8823 28.0048C14.4909 27.7838 13.2146 27.2145 12.1225 26.4103C10.7669 25.4123 9.68502 24.046 9.00776 22.5329C7.82816 19.898 7.89824 16.863 9.6395 14.4982C10.3152 13.581 11.2294 12.8142 12.367 12.2909C13.3993 11.8167 14.6101 11.5436 15.9846 11.5436C19.0942 11.5436 21.3148 13.5293 22.3112 15.8558C23.8679 19.4877 22.3486 23.4562 17.9642 23.4562C15.9442 23.4562 13.9635 21.9717 13.7533 19.9189C13.6034 18.4472 14.385 17.2231 15.5805 16.7193C16.3038 16.4144 18.0394 16.1433 18.1514 17.2953C18.1995 17.7894 17.8384 18.2304 17.3442 18.2784C16.4803 18.3644 15.4393 18.7148 15.5436 19.7358C15.6603 20.8852 16.8885 21.6515 17.9642 21.6515C19.5438 21.6515 20.4759 20.9446 20.8616 19.965C21.2846 18.8923 21.0984 17.5971 20.6549 16.5607C19.9127 14.8276 18.2717 13.3483 15.9846 13.3483C14.8725 13.3483 13.9129 13.5595 13.1138 13.9268C12.2688 14.3156 11.5915 14.8834 11.0912 15.5622C9.73106 17.4088 9.73362 19.7516 10.6508 21.7993C11.2033 23.0342 12.0841 24.1468 13.1865 24.9586C14.0597 25.6011 15.071 26.0553 16.1646 26.2287C17.4644 26.4349 18.8354 26.3162 20.1306 25.9259C21.5716 25.4911 22.9077 24.7212 23.9374 23.691C25.8291 21.7973 26.4107 19.368 25.6439 16.8262C25.0377 14.8158 23.8546 13.1222 22.2714 11.9441C20.7306 10.7982 18.8021 10.1338 16.647 10.1338Z" fill="#2B2A29"/>
<path fill-rule="evenodd" clip-rule="evenodd" d="M19.1659 36.0052C18.7209 36.0052 18.2763 35.7182 18.2799 35.1433C18.2865 33.8311 18.3919 32.498 18.1985 31.1952C18.0983 30.5184 18.68 30.0739 19.195 30.0739C19.5373 30.0739 19.8497 30.2688 19.9163 30.721C20.1353 32.1938 20.0692 33.6587 20.061 35.1433C20.0579 35.7182 19.6114 36.0052 19.1659 36.0052ZM8.57868 34.0256C7.92543 34.0256 7.32893 33.1324 7.90644 32.4771C8.91012 31.3374 9.70958 30.0396 10.5956 28.8109C10.7935 28.5357 11.0709 28.4217 11.3435 28.4217C11.9854 28.4217 12.6069 29.0549 12.1344 29.7098C11.1593 31.0637 10.2723 32.4812 9.16687 33.737C8.98733 33.9406 8.78074 34.0256 8.57868 34.0256ZM28.2134 33.6864C27.953 33.6864 27.705 33.5492 27.5642 33.2173C26.9832 31.8397 26.3161 30.4591 25.3283 29.3245C24.7555 28.6661 25.3508 27.7736 26.0016 27.7736C26.2031 27.7736 26.4098 27.8589 26.5893 28.0647C27.6856 29.3245 28.4574 30.786 29.104 32.3175C29.4063 33.0347 28.7806 33.6864 28.2134 33.6864ZM34.5421 26.5269C34.4029 26.5269 34.2561 26.4911 34.1073 26.4093C32.8526 25.7223 31.6136 25.0183 30.2468 24.5749C29.259 24.2562 29.5501 22.8101 30.4319 22.8101C30.5219 22.8101 30.6187 22.825 30.7199 22.8582C32.2346 23.3472 33.6168 24.1094 35.006 24.8701C35.865 25.3401 35.3397 26.5269 34.5421 26.5269ZM2.2274 25.3868C1.41451 25.3868 0.877507 24.1917 1.75166 23.7396C3.17789 23.0015 4.74622 22.671 6.26338 22.1783C6.3653 22.1456 6.46032 22.1308 6.55039 22.1308C7.43273 22.1308 7.72543 23.5773 6.73709 23.8971C5.37329 24.3391 3.9323 24.6142 2.65097 25.2783C2.50622 25.3534 2.36251 25.3868 2.2274 25.3868ZM6.30842 17.0283C4.78028 17.0283 3.33286 16.8688 1.61993 16.835C-0.39931 16.7958 -0.339207 15.0359 1.83149 15.039C3.65875 15.0421 4.70952 15.1975 6.27362 15.246C7.40816 15.2823 7.42352 17.0283 6.30842 17.0283ZM34.8946 17.0277C33.538 17.0277 32.1803 17.0277 30.8233 17.0277C29.6734 17.0277 29.6734 15.246 30.8233 15.246C32.1803 15.246 33.538 15.246 34.8946 15.246C36.045 15.246 36.045 17.0277 34.8946 17.0277ZM8.37502 11.3215C8.18012 11.3215 7.97909 11.2592 7.794 11.1112C6.72788 10.2602 5.51453 9.63251 4.22647 9.18995C3.25157 8.85646 3.53492 7.41898 4.40249 7.41898C4.49607 7.41898 4.59533 7.43535 4.70119 7.47118C6.29715 8.01958 7.73405 8.79769 9.05384 9.85037C9.76382 10.4182 9.11671 11.3215 8.37502 11.3215ZM28.4682 11.2954C27.6497 11.2954 27.3904 9.88822 28.3235 9.50765C29.656 8.96801 30.7614 7.99853 31.9568 7.22307C32.1154 7.12028 32.2714 7.07525 32.4182 7.07525C33.1666 7.07525 33.6592 8.2405 32.8561 8.76084C31.5123 9.63251 30.2953 10.6187 28.7966 11.2264C28.6795 11.2739 28.5694 11.2954 28.4682 11.2954ZM12.9457 7.71474C12.5895 7.71474 12.232 7.52804 12.0898 7.09733C11.6013 5.62505 10.6985 4.33656 9.9163 3.01222C9.51058 2.32419 10.1265 1.68324 10.7362 1.68324C11.0064 1.68324 11.276 1.80896 11.455 2.11292C12.3211 3.57848 13.2683 4.99637 13.8071 6.62362C14.026 7.28403 13.4863 7.71474 12.9457 7.71474ZM23.9973 7.12599C23.4449 7.12541 22.9155 6.70242 23.1753 6.05737C23.6859 4.79636 24.2439 3.55699 24.8501 2.33794C25.0097 2.01716 25.2685 1.88426 25.534 1.88426C26.1202 1.88426 26.7382 2.53179 26.3883 3.23768C25.8517 4.31856 25.3463 5.41335 24.8941 6.53209C24.7268 6.94645 24.3575 7.12599 23.9973 7.12599ZM18.2313 6.38677C17.8912 6.38677 17.5811 6.19188 17.5198 5.74011C17.2891 4.05466 17.3858 2.4182 17.6333 0.740947C17.6998 0.289318 18.0118 0.0944214 18.3536 0.0944214C18.8687 0.0944214 19.4503 0.53933 19.3506 1.21567C19.1537 2.54876 19.0548 3.92571 19.239 5.26656C19.3306 5.94217 18.7459 6.38677 18.2313 6.38677Z" fill="#2B2A29"/>
</g>
<defs>
<clipPath id="clip0_314_303">
<rect width="36" height="36" fill="white"/>
</clipPath>
</defs>
</svg>
