<svg width="36" height="35" viewBox="0 0 36 35" fill="none" xmlns="http://www.w3.org/2000/svg">
<g clip-path="url(#clip0_307_162)">
<path d="M33.3248 8.72707H31.9132L23.5704 0.480911C23.4369 0.349139 23.2614 0.279785 23.0718 0.279785C22.8822 0.279785 22.7066 0.356074 22.5732 0.480911L14.2303 8.72707H2.42528C2.03904 8.72707 1.72302 9.03916 1.72302 9.42061V25.4205C1.72302 25.802 2.03904 26.114 2.42528 26.114H3.83683L12.1867 34.3602C12.3272 34.4989 12.5027 34.5613 12.6853 34.5613C12.8679 34.5613 13.0435 34.492 13.1839 34.3602L21.5338 26.114H33.3248C33.711 26.114 34.027 25.802 34.027 25.4205V9.42061C34.027 9.03223 33.711 8.72707 33.3248 8.72707ZM23.0718 1.95121L29.9258 8.72013H16.2177L23.0718 1.95121ZM12.6783 32.883L5.82423 26.114H19.5394L12.6783 32.883ZM32.6225 24.72H21.2318H4.12476H3.12754V10.1141H14.5182H31.6253H32.6225V24.72Z" fill="#6B9D52"/>
<path d="M29.8906 13.991C29.8415 13.991 29.7993 13.998 29.7642 13.998C28.746 13.998 27.9173 13.1796 27.9173 12.174C27.9173 12.1323 27.9173 12.0838 27.9243 12.0283C27.9384 11.8341 27.8752 11.6469 27.7417 11.5012C27.6083 11.3556 27.4187 11.2793 27.2291 11.2793H8.59808C8.40145 11.2793 8.21184 11.3625 8.08543 11.5012C7.952 11.6469 7.8888 11.8341 7.90284 12.0283C7.90987 12.0838 7.90987 12.1323 7.90987 12.174C7.90987 13.1796 7.0812 13.998 6.06292 13.998C6.00674 13.998 5.95056 13.998 5.88736 13.991C5.69072 13.9702 5.49409 14.0396 5.34661 14.1713C5.19914 14.3031 5.11487 14.4904 5.11487 14.6846V19.8376C5.11487 20.0317 5.19914 20.219 5.34661 20.3508C5.49409 20.4825 5.69072 20.545 5.88736 20.5311C5.95056 20.5242 6.00674 20.5242 6.06292 20.5242C7.0812 20.5242 7.90987 21.3425 7.90987 22.3482C7.90987 22.473 7.89582 22.6048 7.86773 22.7296C7.8256 22.9377 7.87475 23.1457 8.00818 23.3122C8.14161 23.4717 8.34527 23.5688 8.55595 23.5688H27.2782C27.4889 23.5688 27.6926 23.4717 27.826 23.3122C27.9594 23.1527 28.0086 22.9377 27.9664 22.7296C27.9384 22.6048 27.9243 22.473 27.9243 22.3482C27.9243 21.3425 28.753 20.5242 29.7713 20.5242C29.8064 20.5242 29.8485 20.5242 29.8977 20.5311C30.0943 20.545 30.2839 20.4756 30.4244 20.3438C30.5648 20.2121 30.6491 20.0317 30.6491 19.8376V14.6915C30.6491 14.4973 30.5718 14.317 30.4244 14.1852C30.2769 14.0465 30.0873 13.9772 29.8906 13.991ZM29.2375 19.1718C27.7487 19.4145 26.597 20.6559 26.5198 22.1748H9.30034C9.2231 20.6351 8.03627 19.3729 6.51237 19.1579V15.3504C7.92391 15.1492 9.05455 14.0534 9.26523 12.6594H26.5479C26.7586 14.0257 27.8541 15.1146 29.2305 15.3434V19.1718H29.2375Z" fill="#6B9D52"/>
<path d="M17.875 13.6511C15.7683 13.6511 14.0618 15.3434 14.0618 17.417C14.0618 19.4907 15.7753 21.1829 17.875 21.1829C19.9748 21.1829 21.6883 19.4907 21.6883 17.417C21.6883 15.3434 19.9818 13.6511 17.875 13.6511ZM17.875 19.7959C16.5478 19.7959 15.4663 18.7278 15.4663 17.417C15.4663 16.1062 16.5478 15.0382 17.875 15.0382C19.2023 15.0382 20.2838 16.1062 20.2838 17.417C20.2838 18.7278 19.2023 19.7959 17.875 19.7959Z" fill="#6B9D52"/>
<path d="M10.5714 15.4543C9.47586 15.4543 8.58398 16.3351 8.58398 17.4171C8.58398 18.499 9.47586 19.3798 10.5714 19.3798C11.6669 19.3798 12.5588 18.499 12.5588 17.4171C12.5588 16.3351 11.6669 15.4543 10.5714 15.4543ZM10.5714 17.9927C10.2483 17.9927 9.98851 17.7361 9.98851 17.4171C9.98851 17.098 10.2483 16.8414 10.5714 16.8414C10.8944 16.8414 11.1543 17.098 11.1543 17.4171C11.1543 17.7361 10.8944 17.9927 10.5714 17.9927Z" fill="#6B9D52"/>
<path d="M25.347 15.4543C24.2515 15.4543 23.3596 16.3351 23.3596 17.4171C23.3596 18.499 24.2515 19.3798 25.347 19.3798C26.4425 19.3798 27.3344 18.499 27.3344 17.4171C27.3344 16.3351 26.4425 15.4543 25.347 15.4543ZM25.347 17.9927C25.024 17.9927 24.7641 17.7361 24.7641 17.4171C24.7641 17.098 25.024 16.8414 25.347 16.8414C25.6701 16.8414 25.9299 17.098 25.9299 17.4171C25.9299 17.7361 25.663 17.9927 25.347 17.9927Z" fill="#6B9D52"/>
</g>
<defs>
<clipPath id="clip0_307_162">
<rect width="35.3846" height="34.6154" fill="white" transform="translate(0.307617 0.0771484)"/>
</clipPath>
</defs>
</svg>
