<svg width="346" height="114" viewBox="0 0 346 114" fill="none" xmlns="http://www.w3.org/2000/svg">
<path d="M0 0H346V114H0V0Z" fill="white"/>
<g clip-path="url(#clip0_307_1273)">
<path d="M37.8585 104.156H36.1366V10H37.8585V104.156ZM19.1936 104.156H17.4716V10H19.1936V104.156ZM11.722 104.156H10V10H11.722V104.156ZM34.1077 104.156H28.665V10H34.1077V104.156ZM26.6661 104.156H21.1924V10H26.6661V104.156ZM67.7075 104.156H65.9855V10H67.7075V104.156ZM63.9566 104.156H62.2347V10H63.9566V104.156ZM60.2358 104.156H58.5139V10H60.2358V104.156ZM45.2908 104.156H39.8489V10H45.2908V104.156ZM56.5151 104.156H51.0413V10H56.5151V104.156ZM71.4198 104.156H69.6978V10H71.4198V104.156ZM97.5564 104.156H95.8344V10H97.5564V104.156ZM82.6122 104.156H80.8902V10H82.6122V104.156ZM93.8055 104.156H88.3628V10H93.8055V104.156ZM78.8914 104.156H73.4177V10H78.8914V104.156ZM112.461 104.156H110.739V10H112.461V104.156ZM108.74 104.156H107.018V10H108.74V104.156ZM116.213 104.156H114.46V10H116.213V104.156ZM104.989 104.156H99.5467V10H104.989V104.156ZM127.405 104.156H121.932V10H127.405V104.156ZM131.118 104.156H129.396V10H131.118V104.156ZM157.254 104.156H155.532V10H157.254V104.156ZM142.31 104.156H140.588V10H142.31V104.156ZM153.503 104.156H148.061V10H153.503V104.156ZM138.589 104.156H133.115V10H138.589V104.156ZM160.967 104.156H159.245V10H160.967V104.156ZM179.631 104.156H177.91V10H179.631V104.156ZM187.103 104.156H185.381V10H187.103V104.156ZM175.911 104.156H170.437V10H175.911V104.156ZM168.438 104.156H162.964V10H168.438V104.156ZM213.201 104.156H211.479V10H213.201V104.156ZM198.287 104.156H196.565V10H198.287V104.156ZM216.952 104.156H215.23V10H216.952V104.156ZM194.535 104.156H189.093V10H194.535V104.156ZM205.76 104.156H200.286V10H205.76V104.156ZM239.329 104.156H237.607V10H239.329V104.156ZM224.384 104.156H222.662V10H224.384V104.156ZM220.664 104.156H218.942V10H220.664V104.156ZM231.857 104.156H226.414V10H231.857V104.156ZM246.801 104.156H241.328V10H246.801V104.156ZM250.513 104.156H248.791V10H250.513V104.156ZM276.65 104.156H274.928V10H276.65V104.156ZM261.706 104.156H259.984V10H261.706V104.156ZM272.899 104.156H267.456V10H272.899V104.156ZM257.985 104.156H252.511V10H257.985V104.156ZM299.027 104.156H297.305V10H299.027V104.156ZM287.834 104.156H286.112V10H287.834V104.156ZM291.555 104.156H289.833V10H291.555V104.156ZM284.082 104.156H278.64V10H284.082V104.156ZM306.499 104.156H301.026V10H306.499V104.156ZM336.348 104.156H334.626V10H336.348V104.156ZM317.683 104.156H315.961V10H317.683V104.156ZM310.211 104.156H308.489V10H310.211V104.156ZM332.597 104.156H327.154V10H332.597V104.156ZM325.155 104.156H319.681V10H325.155V104.156Z" fill="black"/>
</g>
<defs>
<clipPath id="clip0_307_1273">
<rect width="326" height="94" fill="white" transform="translate(10 10)"/>
</clipPath>
</defs>
</svg>
