<svg width="33" height="54" viewBox="0 0 33 54" fill="none" xmlns="http://www.w3.org/2000/svg">
<path fill-rule="evenodd" clip-rule="evenodd" d="M19.7047 6.25434L21.4073 0.578774C21.5105 0.235179 21.8268 0 22.1854 0H31.931C32.3797 0 32.7431 0.363417 32.7431 0.812078C32.7431 1.26074 32.3797 1.62416 31.931 1.62416H22.7899L21.1366 7.13481C24.0234 9.1964 25.9724 12.487 26.2195 16.2422H27.0585C27.5068 16.2422 27.8706 16.606 27.8706 17.0547V25.1758C27.8706 25.6241 27.5068 25.9879 27.0585 25.9879H26.1354L22.1772 52.9056C22.1185 53.3042 21.7764 53.5995 21.3737 53.5995H6.75524C6.3522 53.5995 6.01009 53.3042 5.95177 52.9056L1.99312 25.9879H1.07038C0.621717 25.9879 0.258301 25.6241 0.258301 25.1758V17.0547C0.258301 16.606 0.621717 16.2422 1.07038 16.2422H1.909C2.327 9.89329 7.60926 4.87231 14.0647 4.87231C16.1002 4.87231 18.0189 5.37144 19.7052 6.25385L19.7047 6.25434ZM7.45707 51.9761H20.6723L24.4938 25.9877H3.63481L7.45707 51.9761ZM1.88286 17.8673V24.3643H26.246V17.8673H1.88286ZM20.639 8.79393L18.4047 16.2428H24.5914C24.3622 13.23 22.8681 10.5702 20.639 8.79393ZM19.2284 7.84426C17.7018 6.98658 15.9401 6.49756 14.0647 6.49756C8.50695 6.49756 3.95249 10.7916 3.53804 16.2432H16.7093L19.2284 7.84426ZM14.0647 42.2306C11.3735 42.2306 9.19188 40.0489 9.19188 37.3581C9.19188 34.6669 11.3735 32.4853 14.0647 32.4853C16.7555 32.4853 18.9371 34.6669 18.9371 37.3581C18.9371 40.0489 16.7555 42.2306 14.0647 42.2306ZM14.0647 40.6064C15.8586 40.6064 17.3131 39.152 17.3131 37.358C17.3131 35.5638 15.8587 34.1094 14.0647 34.1094C12.2704 34.1094 10.8161 35.5638 10.8161 37.358C10.8161 39.1519 12.2704 40.6064 14.0647 40.6064Z" fill="white"/>
</svg>
