<svg width="38" height="45" viewBox="0 0 38 45" fill="none" xmlns="http://www.w3.org/2000/svg">
<path d="M24.7004 20.1676H35.6253V13.515H24.7004V20.1676ZM35.6253 22.3851V43.452C35.6253 44.0642 35.1363 44.5605 34.533 44.5605H3.94123C3.33801 44.5605 2.84856 44.0642 2.84856 43.452V22.3851H1.75625C1.15267 22.3851 0.663574 21.8887 0.663574 21.2762V12.4061C0.663574 11.7939 1.15267 11.2972 1.75625 11.2972H11.4366L6.12828 9.75808C4.18697 9.19677 2.84846 7.39621 2.84846 5.34777C2.84846 0.618889 8.62389 -1.58332 11.6945 1.97431L19.2368 10.7226L26.7798 1.97393C29.85 -1.58332 35.6251 0.618889 35.6251 5.34777C35.6251 7.3963 34.2869 9.19679 32.3463 9.75808L27.0373 11.2972H36.7177C37.3209 11.2972 37.8103 11.7939 37.8103 12.4061V21.2762C37.8103 21.8887 37.3209 22.3851 36.7177 22.3851H35.6253ZM2.84874 20.1676H13.7746V13.515H2.84874V20.1676ZM15.9594 13.515V20.1676H22.5147V13.515H19.2612C19.2447 13.5154 19.2283 13.5154 19.2118 13.515H15.9594ZM22.5147 22.3851H15.9594V42.3429H22.5147V22.3851ZM24.7001 22.3851V42.3429H33.4404V22.3851H24.7001ZM13.7742 22.3851H5.03391V42.3429H13.7742V22.3851ZM10.0506 3.43552C8.30895 1.41749 5.03391 2.66668 5.03391 5.34815C5.03391 6.4062 5.72493 7.33614 6.72799 7.6261L15.9757 10.308L10.0506 3.43552ZM31.7468 7.62572C32.7492 7.33615 33.4402 6.4062 33.4402 5.34815C33.4402 2.66666 30.165 1.41749 28.4239 3.43514L22.4985 10.3079L31.7468 7.62572Z" fill="white"/>
</svg>
