<svg width="32" height="57" viewBox="0 0 32 57" fill="none" xmlns="http://www.w3.org/2000/svg">
<path d="M27.2641 -0.359863H4.73614C2.47362 -0.359863 0.640137 1.47362 0.640137 3.73614V52.3979C0.640137 54.6604 2.47362 56.4939 4.73614 56.4939H27.2641C29.5266 56.4939 31.3601 54.6604 31.3601 52.3979L31.3597 3.73614C31.3597 1.47362 29.5262 -0.359863 27.2637 -0.359863H27.2641ZM16.0002 54.679C14.527 54.679 13.3333 53.4853 13.3333 52.0129C13.3333 50.5397 14.527 49.346 16.0002 49.346C17.4721 49.346 18.6663 50.5397 18.6663 52.0129C18.6663 53.4853 17.4731 54.679 16.0002 54.679ZM28.8002 45.9968C28.8002 46.8437 28.111 47.5329 27.2641 47.5329L4.73614 47.5325C3.88926 47.5325 3.20002 46.8432 3.20002 45.9964V3.73581C3.20002 2.88893 3.8893 2.19969 4.73614 2.19969H27.2641C28.1106 2.19969 28.7999 2.88897 28.7999 3.73581L28.8002 45.9968Z" fill="white"/>
</svg>
